HIERARCHY
ROOT Hips
{
	OFFSET 0.000000 97.167313 0.000000
	CHANNELS 6 Xposition Yposition Zposition Xrotation Yrotation Zrotation
	JOINT Spine
	{
		OFFSET 0.000000 13.784798 0.064400
		CHANNELS 3 Xrotation Yrotation Zrotation
		JOINT Spine1
		{
			OFFSET 0.000000 12.037903 0.404700
			CHANNELS 3 Xrotation Yrotation Zrotation
			JOINT Spine2
			{
				OFFSET 0.000000 17.795601 0.420200
				CHANNELS 3 Xrotation Yrotation Zrotation
				JOINT Neck
				{
					OFFSET 0.000000 39.131302 11.954600
					CHANNELS 3 Xrotation Yrotation Zrotation
					JOINT Head
					{
						OFFSET 0.000000 14.456192 15.627699
						CHANNELS 3 Xrotation Yrotation Zrotation
						JOINT HeadTop_End
						{
							OFFSET 0.000000 15.703506 7.603401
							CHANNELS 3 Xrotation Yrotation Zrotation
							End Site
							{
								OFFSET 0.000000 17.447403 0.000000
							}
						}
					}
				}
				JOINT LeftShoulder
				{
					OFFSET 17.399500 24.608795 1.168800
					CHANNELS 3 Xrotation Yrotation Zrotation
					JOINT LeftArm
					{
						OFFSET 18.980635 5.765305 1.818600
						CHANNELS 3 Xrotation Yrotation Zrotation
						JOINT LeftForeArm
						{
							OFFSET 49.290169 0.000000 0.000000
							CHANNELS 3 Xrotation Yrotation Zrotation
							JOINT LeftHand
							{
								OFFSET 31.562012 0.000000 0.000000
								CHANNELS 3 Xrotation Yrotation Zrotation
								JOINT LeftHandThumb1
								{
									OFFSET 6.133995 -4.388519 7.076070
									CHANNELS 3 Xrotation Yrotation Zrotation
									JOINT LeftHandThumb2
									{
										OFFSET 6.037666 -3.485840 3.485847
										CHANNELS 3 Xrotation Yrotation Zrotation
										JOINT LeftHandThumb3
										{
											OFFSET 6.496506 -3.750763 3.750761
											CHANNELS 3 Xrotation Yrotation Zrotation
											JOINT LeftHandThumb4
											{
												OFFSET 5.616882 -3.242905 3.242910
												CHANNELS 3 Xrotation Yrotation Zrotation
												End Site
												{
													OFFSET -1.254608 7.132141 0.375429
												}
											}
										}
									}
								}
								JOINT LeftHandPinky1
								{
									OFFSET 18.920792 -0.453171 -11.426712
									CHANNELS 3 Xrotation Yrotation Zrotation
									JOINT LeftHandPinky2
									{
										OFFSET 4.919586 0.000000 0.000000
										CHANNELS 3 Xrotation Yrotation Zrotation
										JOINT LeftHandPinky3
										{
											OFFSET 5.233047 0.000000 0.000000
											CHANNELS 3 Xrotation Yrotation Zrotation
											JOINT LeftHandPinky4
											{
												OFFSET 5.571716 0.000000 0.000000
												CHANNELS 3 Xrotation Yrotation Zrotation
												End Site
												{
													OFFSET -3.459808 4.342407 -0.466164
												}
											}
										}
									}
								}
								JOINT LeftHandRing1
								{
									OFFSET 22.726120 -0.094986 -6.500475
									CHANNELS 3 Xrotation Yrotation Zrotation
									JOINT LeftHandRing2
									{
										OFFSET 6.408615 0.000000 0.000000
										CHANNELS 3 Xrotation Yrotation Zrotation
										JOINT LeftHandRing3
										{
											OFFSET 6.150223 0.000000 0.000000
											CHANNELS 3 Xrotation Yrotation Zrotation
											JOINT LeftHandRing4
											{
												OFFSET 6.145386 0.000000 0.000000
												CHANNELS 3 Xrotation Yrotation Zrotation
												End Site
												{
													OFFSET -3.671402 4.923981 -0.202372
												}
											}
										}
									}
								}
								JOINT LeftHandMiddle1
								{
									OFFSET 23.373947 0.000000 0.000001
									CHANNELS 3 Xrotation Yrotation Zrotation
									JOINT LeftHandMiddle2
									{
										OFFSET 6.996567 0.000000 0.000000
										CHANNELS 3 Xrotation Yrotation Zrotation
										JOINT LeftHandMiddle3
										{
											OFFSET 7.015945 0.000000 0.000000
											CHANNELS 3 Xrotation Yrotation Zrotation
											JOINT LeftHandMiddle4
											{
												OFFSET 7.721573 0.000000 0.000000
												CHANNELS 3 Xrotation Yrotation Zrotation
												End Site
												{
													OFFSET -4.651108 6.158463 0.251582
												}
											}
										}
									}
								}
								JOINT LeftHandIndex1
								{
									OFFSET 21.310577 -0.490082 6.209344
									CHANNELS 3 Xrotation Yrotation Zrotation
									JOINT LeftHandIndex2
									{
										OFFSET 7.536453 0.000000 0.000000
										CHANNELS 3 Xrotation Yrotation Zrotation
										JOINT LeftHandIndex3
										{
											OFFSET 7.512344 0.000000 0.000000
											CHANNELS 3 Xrotation Yrotation Zrotation
											JOINT LeftHandIndex4
											{
												OFFSET 10.212402 0.000000 0.000001
												CHANNELS 3 Xrotation Yrotation Zrotation
												End Site
												{
													OFFSET -5.180801 8.690506 1.388433
												}
											}
										}
									}
								}
							}
						}
					}
				}
				JOINT RightShoulder
				{
					OFFSET -17.399500 24.608795 1.168800
					CHANNELS 3 Xrotation Yrotation Zrotation
					JOINT RightArm
					{
						OFFSET -18.980635 5.765305 1.818600
						CHANNELS 3 Xrotation Yrotation Zrotation
						JOINT RightForeArm
						{
							OFFSET -49.290169 0.000000 0.000000
							CHANNELS 3 Xrotation Yrotation Zrotation
							JOINT RightHand
							{
								OFFSET -31.562012 0.000000 0.000000
								CHANNELS 3 Xrotation Yrotation Zrotation
								JOINT RightHandThumb1
								{
									OFFSET -6.133995 -4.388519 7.076070
									CHANNELS 3 Xrotation Yrotation Zrotation
									JOINT RightHandThumb2
									{
										OFFSET -6.037666 -3.485840 3.485847
										CHANNELS 3 Xrotation Yrotation Zrotation
										JOINT RightHandThumb3
										{
											OFFSET -6.496506 -3.750763 3.750761
											CHANNELS 3 Xrotation Yrotation Zrotation
											JOINT RightHandThumb4
											{
												OFFSET -5.616882 -3.242905 3.242910
												CHANNELS 3 Xrotation Yrotation Zrotation
												End Site
												{
													OFFSET 1.254608 7.132141 0.375429
												}
											}
										}
									}
								}
								JOINT RightHandIndex1
								{
									OFFSET -21.310577 -0.490082 6.209344
									CHANNELS 3 Xrotation Yrotation Zrotation
									JOINT RightHandIndex2
									{
										OFFSET -7.536453 0.000000 0.000000
										CHANNELS 3 Xrotation Yrotation Zrotation
										JOINT RightHandIndex3
										{
											OFFSET -7.512344 0.000000 0.000000
											CHANNELS 3 Xrotation Yrotation Zrotation
											JOINT RightHandIndex4
											{
												OFFSET -10.212402 0.000000 0.000001
												CHANNELS 3 Xrotation Yrotation Zrotation
												End Site
												{
													OFFSET 5.180801 8.690506 1.388433
												}
											}
										}
									}
								}
								JOINT RightHandMiddle1
								{
									OFFSET -23.373947 0.000000 0.000001
									CHANNELS 3 Xrotation Yrotation Zrotation
									JOINT RightHandMiddle2
									{
										OFFSET -6.996567 0.000000 0.000000
										CHANNELS 3 Xrotation Yrotation Zrotation
										JOINT RightHandMiddle3
										{
											OFFSET -7.015945 0.000000 0.000000
											CHANNELS 3 Xrotation Yrotation Zrotation
											JOINT RightHandMiddle4
											{
												OFFSET -7.721573 0.000000 0.000000
												CHANNELS 3 Xrotation Yrotation Zrotation
												End Site
												{
													OFFSET 4.651108 6.158463 0.251582
												}
											}
										}
									}
								}
								JOINT RightHandRing1
								{
									OFFSET -22.726120 -0.094986 -6.500475
									CHANNELS 3 Xrotation Yrotation Zrotation
									JOINT RightHandRing2
									{
										OFFSET -6.408615 0.000000 0.000000
										CHANNELS 3 Xrotation Yrotation Zrotation
										JOINT RightHandRing3
										{
											OFFSET -6.150223 0.000000 0.000000
											CHANNELS 3 Xrotation Yrotation Zrotation
											JOINT RightHandRing4
											{
												OFFSET -6.145386 0.000000 0.000000
												CHANNELS 3 Xrotation Yrotation Zrotation
												End Site
												{
													OFFSET 3.671402 4.923981 -0.202372
												}
											}
										}
									}
								}
								JOINT RightHandPinky1
								{
									OFFSET -18.920792 -0.453171 -11.426712
									CHANNELS 3 Xrotation Yrotation Zrotation
									JOINT RightHandPinky2
									{
										OFFSET -4.919586 0.000000 0.000000
										CHANNELS 3 Xrotation Yrotation Zrotation
										JOINT RightHandPinky3
										{
											OFFSET -5.233047 0.000000 0.000000
											CHANNELS 3 Xrotation Yrotation Zrotation
											JOINT RightHandPinky4
											{
												OFFSET -5.571716 0.000000 0.000000
												CHANNELS 3 Xrotation Yrotation Zrotation
												End Site
												{
													OFFSET 3.459808 4.342407 -0.466164
												}
											}
										}
									}
								}
							}
						}
					}
				}
			}
		}
	}
	JOINT LeftUpLeg
	{
		OFFSET 19.899099 -7.885101 -3.429500
		CHANNELS 3 Xrotation Yrotation Zrotation
		JOINT LeftLeg
		{
			OFFSET 1.745560 -36.997807 10.304700
			CHANNELS 3 Xrotation Yrotation Zrotation
			JOINT LeftFoot
			{
				OFFSET -1.745558 -29.803308 -13.615400
				CHANNELS 3 Xrotation Yrotation Zrotation
				JOINT LeftToeBase
				{
					OFFSET 1.181900 -18.539904 15.226099
					CHANNELS 3 Xrotation Yrotation Zrotation
					JOINT LeftToe_End
					{
						OFFSET -0.863701 1.402801 16.534700
						CHANNELS 3 Xrotation Yrotation Zrotation
						End Site
						{
							OFFSET 0.000000 16.616566 0.000000
						}
					}
				}
			}
		}
	}
	JOINT RightUpLeg
	{
		OFFSET -19.899099 -7.885101 -3.429500
		CHANNELS 3 Xrotation Yrotation Zrotation
		JOINT RightLeg
		{
			OFFSET -1.745560 -36.997807 10.304700
			CHANNELS 3 Xrotation Yrotation Zrotation
			JOINT RightFoot
			{
				OFFSET 1.745558 -29.803308 -13.615400
				CHANNELS 3 Xrotation Yrotation Zrotation
				JOINT RightToeBase
				{
					OFFSET -1.181900 -18.539904 15.226099
					CHANNELS 3 Xrotation Yrotation Zrotation
					JOINT RightToe_End
					{
						OFFSET 0.863701 1.402801 16.534700
						CHANNELS 3 Xrotation Yrotation Zrotation
						End Site
						{
							OFFSET 0.000000 16.616566 0.000000
						}
					}
				}
			}
		}
	}
}
MOTION
Frames: 6
Frame Time: 0.033333
-2.773759 84.459412 1.125790 -13.912970 -54.333103 -9.210756 7.327105 0.786207 0.112113 5.824075 1.412306 0.925450 10.247049 1.441456 -0.569487 2.059636 5.758502 -0.446500 0.109274 35.636481 -7.109699 -0.000000 0.000000 -0.000000 9.213261 -26.170754 -3.134158 -30.259572 7.911757 -57.791132 -90.933601 12.802361 -87.352655 -27.776906 -7.968489 -3.948990 0.699120 9.503395 -2.418104 5.975213 12.647533 1.348334 -23.873519 -17.664218 1.604942 0.000003 0.000002 -0.000001 -7.938268 1.609086 -6.495671 2.210587 4.583654 -51.475191 0.883831 3.096067 -31.858096 0.000002 -0.000004 0.000003 1.254222 -0.073730 -17.945779 3.754110 5.463605 -68.965267 5.298503 9.638347 -33.747029 -0.000001 -0.000002 0.000003 10.058167 -1.800567 -20.644701 1.774259 4.200493 -45.782085 1.632169 4.057817 -43.809428 0.000001 0.000000 0.000001 9.479711 -1.289794 -20.785545 0.709479 2.796442 -28.467100 0.714013 2.804766 -28.559750 0.000000 0.000003 0.000001 12.072902 17.436857 -1.860287 -1.390616 35.531122 47.001954 68.414064 117.949867 -81.780512 -8.583701 20.650442 13.659553 13.942458 -4.273675 -5.300384 7.113189 -20.767508 -2.619490 -3.463363 -24.899714 -18.660456 -0.000001 0.000001 0.000001 0.357760 -5.832691 5.175847 0.094355 -0.933617 11.539843 0.777631 -2.578465 33.559933 -0.000001 -0.000003 -0.000002 3.764070 -12.080516 1.143784 5.714271 -4.535872 103.133466 3.160478 -4.410601 71.234987 0.000001 0.000000 -0.000001 -12.155624 -12.623918 9.228336 6.566889 -4.248428 114.232277 3.755145 -4.569169 78.819727 0.000001 -0.000000 -0.000003 -17.635757 -10.496836 3.325438 4.993664 -4.645013 94.147929 3.647340 -4.546605 77.463429 0.000000 0.000002 0.000004 -20.892410 11.246760 22.769557 33.117374 9.411920 -2.167605 0.711450 3.124039 -14.680211 -0.208562 0.099040 0.223846 -0.000000 -0.000001 0.000000 -14.749017 -18.573482 -26.483459 39.200102 0.851592 -1.256815 -17.308488 -1.943111 14.325915 1.077622 2.170987 2.153210 0.000000 0.000000 0.000000 
-2.764383 84.444443 1.118726 -13.962173 -54.327683 -9.250761 7.378882 0.805111 0.103056 5.867363 1.443152 0.952235 10.361520 1.485929 -0.612705 2.036940 5.758983 -0.478346 -0.022769 35.553136 -7.147047 -0.000000 0.000000 -0.000001 9.223866 -26.229726 -3.325381 -30.511121 7.791778 -57.631272 -90.918076 12.642219 -87.382025 -27.808335 -7.921043 -3.844959 0.699121 9.503389 -2.418105 5.975211 12.647534 1.348335 -23.873521 -17.664216 1.604941 0.000001 -0.000004 -0.000002 -7.938268 1.609093 -6.495668 2.210589 4.583652 -51.475188 0.883831 3.096063 -31.858103 -0.000001 0.000002 -0.000002 1.254221 -0.073729 -17.945777 3.754106 5.463607 -68.965274 5.298506 9.638351 -33.747036 0.000001 0.000000 0.000002 10.058169 -1.800566 -20.644703 1.774258 4.200499 -45.782078 1.632170 4.057812 -43.809431 -0.000000 0.000001 0.000006 9.479713 -1.289790 -20.785541 0.709480 2.796442 -28.467096 0.714014 2.804764 -28.559755 -0.000000 0.000001 0.000001 12.210357 17.324230 -1.854763 -1.734991 35.439468 47.203612 68.377365 117.980808 -81.731847 -8.409984 20.632581 13.798878 13.942457 -4.273675 -5.300385 7.113191 -20.767503 -2.619487 -3.463362 -24.899712 -18.660447 -0.000002 0.000003 -0.000003 0.357759 -5.832691 5.175846 0.094357 -0.933616 11.539848 0.777633 -2.578463 33.559933 -0.000000 -0.000001 -0.000001 3.764071 -12.080515 1.143786 5.714269 -4.535874 103.133466 3.160478 -4.410601 71.234987 -0.000000 0.000000 -0.000009 -12.155626 -12.623915 9.228337 6.566887 -4.248428 114.232277 3.755145 -4.569167 78.819734 0.000001 0.000001 -0.000003 -17.635757 -10.496831 3.325443 4.993661 -4.645014 94.147935 3.647342 -4.546602 77.463423 0.000001 -0.000002 0.000002 -20.892251 11.241861 22.777518 33.155815 9.403442 -2.167592 0.700729 3.124713 -14.680184 -0.208562 0.099038 0.223846 -0.000000 -0.000001 -0.000000 -14.746578 -18.568161 -26.492637 39.241943 0.858026 -1.257873 -17.324978 -1.944306 14.322452 1.077622 2.170987 2.153210 0.000000 -0.000000 -0.000000 
-2.757336 84.432953 1.113438 -13.998661 -54.323667 -9.280589 7.421124 0.822566 0.095286 5.906608 1.472804 0.976158 10.468915 1.528845 -0.653762 2.021279 5.759704 -0.514052 -0.181688 35.479004 -7.157801 -0.000000 -0.000001 -0.000000 9.234143 -26.280227 -3.515521 -30.747025 7.669295 -57.483521 -90.905194 12.476815 -87.398793 -27.845993 -7.867504 -3.753942 0.699116 9.503389 -2.418105 5.975212 12.647533 1.348335 -23.873524 -17.664216 1.604941 0.000003 0.000001 -0.000002 -7.938269 1.609089 -6.495666 2.210590 4.583654 -51.475188 0.883832 3.096068 -31.858103 -0.000001 0.000002 -0.000002 1.254221 -0.073727 -17.945779 3.754110 5.463600 -68.965281 5.298503 9.638349 -33.747029 -0.000001 0.000000 -0.000000 10.058167 -1.800567 -20.644703 1.774256 4.200497 -45.782082 1.632171 4.057813 -43.809431 -0.000001 -0.000001 0.000004 9.479709 -1.289792 -20.785539 0.709480 2.796442 -28.467096 0.714016 2.804769 -28.559758 -0.000001 0.000001 0.000001 12.344981 17.116478 -1.826141 -2.099877 35.464350 47.397275 68.448720 117.960427 -81.809233 -8.293997 20.627847 13.965839 13.942453 -4.273677 -5.300383 7.113191 -20.767508 -2.619490 -3.463364 -24.899714 -18.660454 -0.000000 0.000003 -0.000000 0.357758 -5.832695 5.175846 0.094355 -0.933617 11.539845 0.777629 -2.578467 33.559933 -0.000001 -0.000001 -0.000002 3.764070 -12.080518 1.143781 5.714272 -4.535871 103.133473 3.160481 -4.410601 71.234980 0.000001 -0.000000 -0.000004 -12.155624 -12.623918 9.228336 6.566885 -4.248427 114.232277 3.755143 -4.569171 78.819734 0.000000 0.000001 -0.000005 -17.635757 -10.496841 3.325441 4.993663 -4.645017 94.147929 3.647338 -4.546606 77.463423 0.000001 0.000002 0.000004 -20.892895 11.237918 22.783853 33.185345 9.397014 -2.167577 0.692553 3.125231 -14.680281 -0.208562 0.099039 0.223846 -0.000000 -0.000001 0.000000 -14.744932 -18.564036 -26.499625 39.273431 0.863390 -1.258350 -17.337431 -1.945481 14.320295 1.077622 2.170988 2.153210 -0.000000 0.000000 -0.000000 
-2.752829 84.425903 1.110047 -14.021462 -54.321119 -9.299385 7.453572 0.837954 0.088213 5.941575 1.501307 0.996975 10.568300 1.570014 -0.692126 2.012210 5.759898 -0.552796 -0.362302 35.415217 -7.144513 -0.000000 0.000000 -0.000001 9.242475 -26.331284 -3.702920 -30.960366 7.556370 -57.344103 -90.893494 12.305200 -87.409360 -27.892432 -7.809660 -3.676414 0.699119 9.503389 -2.418105 5.975213 12.647530 1.348335 -23.873523 -17.664215 1.604941 0.000007 0.000004 0.000001 -7.938268 1.609090 -6.495669 2.210588 4.583658 -51.475188 0.883838 3.096059 -31.858099 -0.000001 0.000003 -0.000000 1.254225 -0.073735 -17.945779 3.754108 5.463602 -68.965274 5.298503 9.638347 -33.747029 0.000003 0.000002 0.000007 10.058167 -1.800569 -20.644699 1.774257 4.200496 -45.782085 1.632170 4.057815 -43.809431 -0.000001 0.000002 0.000009 9.479710 -1.289794 -20.785538 0.709479 2.796439 -28.467098 0.714015 2.804768 -28.559753 -0.000001 -0.000000 0.000001 12.471254 16.977420 -1.811484 -2.429436 35.418882 47.612139 68.484661 117.953378 -81.845317 -8.155898 20.628594 14.127582 13.942457 -4.273675 -5.300385 7.113192 -20.767506 -2.619489 -3.463363 -24.899714 -18.660451 -0.000000 -0.000000 -0.000003 0.357759 -5.832692 5.175846 0.094354 -0.933619 11.539843 0.777632 -2.578465 33.559933 -0.000000 -0.000001 -0.000001 3.764072 -12.080517 1.143785 5.714269 -4.535873 103.133473 3.160479 -4.410601 71.234987 0.000001 -0.000000 -0.000002 -12.155624 -12.623920 9.228338 6.566890 -4.248426 114.232277 3.755145 -4.569167 78.819727 -0.000000 -0.000001 -0.000002 -17.635757 -10.496837 3.325436 4.993661 -4.645017 94.147935 3.647339 -4.546608 77.463423 0.000002 -0.000002 0.000002 -20.893339 11.235409 22.787958 33.203534 9.392984 -2.167602 0.687699 3.125566 -14.680237 -0.208562 0.099039 0.223846 -0.000000 -0.000001 0.000000 -14.743786 -18.561474 -26.503769 39.292688 0.866589 -1.258670 -17.344780 -1.946224 14.318915 1.077622 2.170987 2.153210 0.000000 0.000001 -0.000000 
-2.750979 84.423042 1.108703 -14.030342 -54.320153 -9.306680 7.474005 0.849707 0.082143 5.973204 1.526420 1.014532 10.659746 1.607530 -0.727064 2.008262 5.759614 -0.592549 -0.551124 35.361870 -7.116169 0.000000 0.000001 -0.000000 9.249883 -26.376420 -3.885290 -31.151376 7.454038 -57.216348 -90.883023 12.148444 -87.417289 -27.927935 -7.750549 -3.609988 0.699117 9.503390 -2.418106 5.975211 12.647530 1.348332 -23.873518 -17.664218 1.604941 0.000004 -0.000000 -0.000002 -7.938269 1.609088 -6.495666 2.210583 4.583654 -51.475185 0.883833 3.096062 -31.858096 -0.000002 -0.000002 -0.000004 1.254222 -0.073728 -17.945779 3.754108 5.463613 -68.965274 5.298505 9.638347 -33.747036 0.000002 0.000004 0.000005 10.058168 -1.800568 -20.644698 1.774256 4.200499 -45.782082 1.632167 4.057814 -43.809431 -0.000001 -0.000001 0.000008 9.479707 -1.289793 -20.785539 0.709480 2.796445 -28.467091 0.714014 2.804768 -28.559746 -0.000001 0.000002 -0.000004 12.589088 16.864096 -1.801140 -2.738620 35.356406 47.837419 68.529262 117.965399 -81.888989 -7.996401 20.631758 14.292821 13.942459 -4.273674 -5.300384 7.113192 -20.767504 -2.619488 -3.463362 -24.899709 -18.660452 -0.000001 -0.000001 -0.000000 0.357759 -5.832689 5.175849 0.094355 -0.933617 11.539840 0.777633 -2.578464 33.559933 -0.000001 -0.000003 -0.000004 3.764072 -12.080517 1.143786 5.714269 -4.535872 103.133466 3.160479 -4.410600 71.234980 0.000001 0.000000 -0.000004 -12.155626 -12.623917 9.228337 6.566887 -4.248426 114.232271 3.755144 -4.569168 78.819727 -0.000001 0.000001 -0.000003 -17.635755 -10.496835 3.325440 4.993665 -4.645017 94.147935 3.647339 -4.546601 77.463423 0.000002 -0.000001 0.000000 -20.893675 11.234447 22.789527 33.211033 9.391374 -2.167596 0.685546 3.125703 -14.680226 -0.208562 0.099039 0.223846 -0.000000 0.000001 0.000000 -14.743445 -18.560515 -26.505451 39.300301 0.868033 -1.258796 -17.347673 -1.946717 14.318511 1.077622 2.170986 2.153210 0.000000 -0.000000 -0.000000 
-2.751963 84.425339 1.109345 -14.024234 -54.320853 -9.301501 7.482669 0.860279 0.076989 5.997306 1.551402 1.028667 10.738540 1.645473 -0.759155 2.008179 5.757271 -0.631982 -0.736046 35.319649 -7.080216 0.000000 0.000000 0.000000 9.256570 -26.413742 -4.061635 -31.318565 7.349678 -57.103390 -90.876425 12.023424 -87.413656 -27.937214 -7.690113 -3.553877 0.699117 9.503392 -2.418105 5.975212 12.647528 1.348333 -23.873521 -17.664218 1.604943 0.000001 0.000002 -0.000002 -7.938271 1.609088 -6.495666 2.210584 4.583657 -51.475188 0.883835 3.096060 -31.858103 -0.000000 -0.000001 0.000001 1.254221 -0.073733 -17.945781 3.754111 5.463602 -68.965281 5.298502 9.638351 -33.747029 -0.000001 -0.000002 0.000005 10.058164 -1.800565 -20.644703 1.774258 4.200495 -45.782085 1.632173 4.057812 -43.809431 0.000002 0.000001 0.000006 9.479713 -1.289794 -20.785543 0.709479 2.796441 -28.467091 0.714017 2.804766 -28.559755 0.000003 -0.000002 -0.000001 12.697486 16.768871 -1.793348 -3.016848 35.279433 48.067094 68.576370 117.998444 -81.933494 -7.818232 20.637992 14.453245 13.942457 -4.273675 -5.300384 7.113190 -20.767508 -2.619489 -3.463362 -24.899707 -18.660451 -0.000001 0.000004 0.000003 0.357758 -5.832693 5.175846 0.094356 -0.933619 11.539839 0.777631 -2.578463 33.559933 -0.000002 -0.000001 -0.000001 3.764070 -12.080518 1.143781 5.714268 -4.535873 103.133466 3.160479 -4.410603 71.234980 -0.000000 0.000001 -0.000004 -12.155624 -12.623917 9.228337 6.566889 -4.248428 114.232277 3.755145 -4.569166 78.819727 -0.000001 -0.000000 -0.000003 -17.635757 -10.496835 3.325440 4.993660 -4.645016 94.147935 3.647343 -4.546604 77.463423 -0.000001 -0.000002 0.000002 -20.893163 11.235350 22.788081 33.204630 9.392718 -2.167557 0.687917 3.125466 -14.679957 -0.208562 0.099039 0.223846 0.000000 -0.000003 -0.000000 -14.743996 -18.561239 -26.504208 39.294553 0.866881 -1.258784 -17.345054 -1.946070 14.318434 1.077622 2.170988 2.153210 -0.000000 0.000001 -0.000000 
